#N canvas 351 84 763 585 10;
#X msg 20 -248 bang;
#N canvas 139 372 580 255 analysis 1;
#X obj -30 -132 inlet~;
#X obj 114 42 outlet;
#X obj -208 -4 sqrt;
#X obj -208 -49 *~;
#X obj -208 -26 average~;
#X obj 69 -136 bang~;
#X obj 162 59 outlet;
#X obj -140 44 outlet;
#X obj 48 39 outlet;
#X obj 222 59 outlet;
#X obj -140 -26 mtof;
#X obj 162 26 + 0.1;
#X msg 132 -112 power_spectrum \$1;
#X obj 133 -135 loadbang;
#X obj -140 1 expr if ($f1 > 10 \, $f1*1.5 \, $f2/4) \; if ($f1 > 10
\, $f1*0.75 \, $f2/8);
#X obj 297 -119 block~ 256;
#X obj 198 -33 specFlatness~ 256;
#X obj 9 -49 specCentroid~ 256;
#X obj -140 -54 sigmund~ -npts 512;
#X obj 161 -3 expr $f1*40;
#X connect 0 0 3 0;
#X connect 0 0 3 1;
#X connect 0 0 16 0;
#X connect 0 0 17 0;
#X connect 0 0 18 0;
#X connect 2 0 1 0;
#X connect 3 0 4 0;
#X connect 4 0 2 0;
#X connect 5 0 16 0;
#X connect 5 0 17 0;
#X connect 10 0 14 0;
#X connect 11 0 6 0;
#X connect 13 0 12 0;
#X connect 14 0 7 0;
#X connect 14 1 8 0;
#X connect 16 0 19 0;
#X connect 17 0 14 1;
#X connect 18 0 10 0;
#X connect 19 0 9 0;
#X connect 19 0 11 0;
#X restore 60 -247 pd analysis;
#X msg 20 -227 6;
#X obj 41 -190 gendyn~;
#X obj 20 -269 inlet;
#X obj 59 -270 inlet~;
#X obj 41 -164 outlet~;
#X connect 0 0 2 0;
#X connect 1 0 3 2;
#X connect 1 1 3 3;
#X connect 1 2 3 4;
#X connect 1 3 3 5;
#X connect 1 4 3 6;
#X connect 2 0 3 1;
#X connect 3 0 6 0;
#X connect 4 0 0 0;
#X connect 4 0 3 0;
#X connect 5 0 1 0;
