#N canvas 422 138 681 433 10;
#X obj -21 -160 tgl 20 0 empty empty Start! 25 9 1 12 -204800 -1 -1
1 1;
#X msg 0 158 \; pd dsp \$1;
#X obj 335 -85 vsl 25 100 0 0.6 0 0 empty empty Master_volume 28 4
1 12 -261682 -45076 -86853 2300 1;
#X obj 275 139 *~;
#X obj 253 179 dac~ 1 2;
#X obj 0 128 r start;
#X obj 335 -130 loadbang;
#X obj 67 -92 vsl 15 80 10 5000 1 0 empty empty empty 0 -9 0 10 -262130
-1 -1 2408 1;
#X obj 97 -91 vsl 15 80 10 5000 1 1 empty empty empty 0 -9 0 10 -262130
-1 -1 2073 1;
#X obj 129 -91 vsl 15 80 0 1 0 0 empty empty empty 0 -9 0 10 -261682
-1 -1 2920 1;
#X msg 129 -120 0.8;
#X obj 161 -92 vsl 15 80 0 2 0 0 empty empty empty 0 -9 0 10 -204800
-1 -1 1100 1;
#X obj 192 -93 vsl 15 80 0 2 0 0 empty empty empty 0 -9 0 10 -204800
-1 -1 1200 1;
#X obj -21 -136 s start;
#X msg 36 -26 6;
#X msg 192 -121 0.4;
#X msg 161 -120 0.3;
#X msg 67 -122 200;
#X msg 97 -121 500;
#X obj 75 17 gendyn~;
#X obj 189 109 freeverb~;
#X msg 243 -106 roomsize \$1;
#X msg 244 -63 damping \$1;
#X msg 242 -17 width \$1;
#X msg 241 28 wet \$1;
#X msg 242 76 dry \$1;
#X obj 245 56 hsl 60 18 0 1 0 1 empty empty dry 2 9 1 12 -225271 -1
-1 4700 0;
#X obj 244 8 hsl 60 18 0 1 0 1 empty empty wet 2 9 1 12 -225271 -1
-1 0 0;
#X obj 245 -37 hsl 60 18 0 1 0 1 empty empty width 2 9 1 12 -262131
-1 -1 0 0;
#X obj 247 -83 hsl 60 18 0 2 0 1 empty empty damping 2 9 1 12 -261689
-1 -1 0 0;
#X obj 246 -127 hsl 60 18 0.11 1.1 0 1 empty empty roomsize 2 9 1 12
-261689 -1 -1 0 0;
#X obj -15 -27 r start;
#X text 589 -62;
#X obj 135 -146 r start;
#X msg 335 -109 0.2;
#X connect 0 0 13 0;
#X connect 2 0 3 1;
#X connect 3 0 4 0;
#X connect 3 0 4 1;
#X connect 5 0 1 0;
#X connect 6 0 34 0;
#X connect 7 0 19 2;
#X connect 8 0 19 3;
#X connect 9 0 19 4;
#X connect 10 0 9 0;
#X connect 11 0 19 5;
#X connect 12 0 19 6;
#X connect 14 0 19 1;
#X connect 15 0 12 0;
#X connect 16 0 11 0;
#X connect 17 0 7 0;
#X connect 18 0 8 0;
#X connect 19 0 20 0;
#X connect 20 0 3 0;
#X connect 21 0 20 0;
#X connect 22 0 20 0;
#X connect 23 0 20 0;
#X connect 24 0 20 0;
#X connect 25 0 20 0;
#X connect 26 0 25 0;
#X connect 27 0 24 0;
#X connect 28 0 23 0;
#X connect 29 0 22 0;
#X connect 30 0 21 0;
#X connect 31 0 14 0;
#X connect 31 0 19 0;
#X connect 33 0 17 0;
#X connect 33 0 18 0;
#X connect 33 0 10 0;
#X connect 33 0 16 0;
#X connect 33 0 15 0;
#X connect 34 0 2 0;
