#N canvas 275 157 656 508 10;
#X obj 139 182 loadbang;
#X msg 139 203 6;
#X obj 83 103 mtof;
#X obj 193 97 / 127;
#X obj 134 262 gendyn~;
#X obj 134 314 outlet~;
#X obj 118 42 unpack f f;
#X obj 118 19 inlet;
#X obj -3 80 > 0;
#X obj 83 130 expr $f1 - 0.75*$f2*$f1 \; $f1 + 0.75*$f2*$f1;
#X obj 286 16 inlet;
#X msg 123 102 bang;
#X obj -35 121 sel 1;
#X obj -37 199 vline~;
#X obj 134 290 *~;
#X obj -35 147 t b b;
#X msg -8 170 0;
#X obj 15 121 sel 0;
#X msg 28 170 0 10;
#X obj 50 216 pipe 10;
#X msg -60 171 1 10;
#X obj 282 38 unpack f f f f;
#X obj 84 76 +;
#X msg 363 62 bang;
#X text 254 316 Gordan Krekovic \, 2013;
#X text 254 283 This is one voice of a polyphonic dynamic stochastic
synthesizer.;
#X connect 0 0 1 0;
#X connect 1 0 4 1;
#X connect 2 0 9 0;
#X connect 3 0 4 4;
#X connect 4 0 14 0;
#X connect 6 0 22 0;
#X connect 6 1 3 0;
#X connect 6 1 8 0;
#X connect 7 0 6 0;
#X connect 8 0 12 0;
#X connect 8 0 17 0;
#X connect 9 0 4 2;
#X connect 9 1 4 3;
#X connect 10 0 21 0;
#X connect 11 0 9 0;
#X connect 12 0 15 0;
#X connect 12 1 19 0;
#X connect 13 0 14 1;
#X connect 14 0 5 0;
#X connect 15 0 20 0;
#X connect 15 1 16 0;
#X connect 16 0 13 0;
#X connect 17 0 18 0;
#X connect 17 1 4 0;
#X connect 18 0 13 0;
#X connect 19 0 4 0;
#X connect 20 0 13 0;
#X connect 21 0 9 1;
#X connect 21 0 11 0;
#X connect 21 1 4 5;
#X connect 21 2 4 6;
#X connect 21 3 22 1;
#X connect 21 3 23 0;
#X connect 22 0 2 0;
#X connect 23 0 22 0;
