#N canvas 304 158 854 483 10;
#N canvas 367 376 706 423 init_tables 0;
#X obj -86 48 i;
#X obj -48 49 + 1;
#X msg -16 -1 0;
#X obj -128 5 until;
#X obj 90 50 + 1;
#X obj 52 8 until;
#X obj 169 24 -;
#X obj 164 85 +;
#X obj 52 49 i;
#X obj 159 0 int;
#X obj 209 3 int;
#X obj -161 49 randomF 1;
#X obj -16 -64 inlet;
#X obj 216 -64 inlet;
#X obj 152 -64 inlet;
#X obj -169 81 expr $f1*2-1;
#X obj -161 115 tabwrite \$0-bpa;
#X obj 76 127 tabwrite \$0-bpd;
#X obj 126 49 random;
#X connect 0 0 1 0;
#X connect 0 0 16 1;
#X connect 1 0 0 1;
#X connect 2 0 0 0;
#X connect 2 0 8 0;
#X connect 3 0 0 0;
#X connect 3 0 11 0;
#X connect 4 0 8 1;
#X connect 5 0 8 0;
#X connect 5 0 9 0;
#X connect 5 0 10 0;
#X connect 5 0 18 0;
#X connect 6 0 18 1;
#X connect 7 0 17 0;
#X connect 8 0 4 0;
#X connect 8 0 17 1;
#X connect 9 0 6 0;
#X connect 10 0 6 1;
#X connect 10 0 7 1;
#X connect 11 0 15 0;
#X connect 12 0 3 0;
#X connect 12 0 2 0;
#X connect 12 0 5 0;
#X connect 13 0 9 0;
#X connect 14 0 10 0;
#X connect 15 0 16 0;
#X connect 18 0 7 0;
#X restore 120 -222 pd init_tables;
#N canvas 496 210 775 366 update_table 0;
#X obj 261 51 + 1;
#X obj 216 64 i;
#X obj 261 75 mod;
#X msg 160 62 0;
#X obj 195 21 bang;
#N canvas 174 100 747 573 update_point 0;
#X obj 17 14 inlet;
#X obj 100 233 inlet;
#X obj 17 178 outlet;
#X obj 100 388 outlet;
#X obj 17 118 +;
#X obj 42 37 bang;
#X obj 17 142 expr if ($f1 > $f3 \, max($f2 \, 2*$f3-$f1) \, if ($f1
< $f2 \, min($f3 \, 2*$f2-$f1) \, $f1));
#X obj 180 85 int;
#X obj 344 87 int;
#X obj 100 329 +;
#X obj 123 256 bang;
#X obj 439 306 float;
#X obj 100 351 expr if ($f1 > $f2 \, max(-$f2 \, 2*$f2-$f1) \, if ($f1
< -$f2 \, min($f2 \, -2*$f2-$f1) \, $f1));
#X obj 180 63 r \$0-mind;
#X obj 344 65 r \$0-maxd;
#X obj 45 65 r \$0-drnd;
#X obj 136 284 r \$0-amprnd;
#X obj 439 283 r \$0-amplimit;
#X obj 123 305 gauss;
#X obj 32 92 gauss;
#X connect 0 0 4 0;
#X connect 0 0 5 0;
#X connect 1 0 10 0;
#X connect 1 0 9 0;
#X connect 4 0 6 0;
#X connect 5 0 7 0;
#X connect 5 0 8 0;
#X connect 5 0 19 0;
#X connect 6 0 2 0;
#X connect 7 0 6 1;
#X connect 8 0 6 2;
#X connect 9 0 12 0;
#X connect 10 0 11 0;
#X connect 10 0 18 0;
#X connect 11 0 12 1;
#X connect 12 0 3 0;
#X connect 13 0 7 0;
#X connect 14 0 8 0;
#X connect 15 0 19 1;
#X connect 16 0 18 1;
#X connect 17 0 11 0;
#X connect 18 0 9 1;
#X connect 19 0 4 1;
#X restore 407 162 pd update_point;
#X obj 164 116 s inc;
#X obj 529 162 r inc;
#X obj 227 -13 inlet;
#X obj 200 180 counter;
#X obj 254 179 sel 1;
#X text 367 231 linear interpolation between breakpoints;
#X text 230 22 initialize and start the loop iterating thorugh breakpoints
;
#X obj 21 28 bang~;
#X obj 21 77 t b b;
#X obj 69 41 samplerate~;
#X obj 69 83 /;
#X obj 54 132 del;
#X obj 21 132 bang;
#X msg 69 63 1000 \$1;
#X obj 200 232 expr $f3+$f1*($f4-$f3)/$f2;
#X obj 200 299 outlet~;
#X obj 200 254 serialize 64;
#X obj 200 276 unpack~;
#X obj 69 108 f;
#X msg 69 17 bang;
#X obj 69 -5 r \$0-start;
#X obj 207 117 tabread \$0-bpd;
#X obj 303 117 tabread \$0-bpa;
#X obj 401 117 tabread \$0-bpa;
#X obj 516 191 tabwrite \$0-bpa;
#X obj 407 191 tabwrite \$0-bpd;
#X obj 87 136 r \$0-start;
#X obj 54 158 spigot;
#X obj 21 53 spigot;
#X obj 251 209 max 1;
#X connect 0 0 2 0;
#X connect 1 0 0 0;
#X connect 1 0 6 0;
#X connect 1 0 27 0;
#X connect 1 0 28 0;
#X connect 2 0 1 1;
#X connect 2 0 29 0;
#X connect 3 0 1 0;
#X connect 4 0 3 0;
#X connect 4 0 1 0;
#X connect 5 0 31 0;
#X connect 5 1 30 0;
#X connect 7 0 30 1;
#X connect 7 0 31 1;
#X connect 8 0 4 0;
#X connect 8 0 2 1;
#X connect 9 0 20 0;
#X connect 9 2 10 0;
#X connect 10 0 1 0;
#X connect 10 0 9 2;
#X connect 13 0 34 0;
#X connect 14 0 18 0;
#X connect 14 1 24 0;
#X connect 15 0 19 0;
#X connect 16 0 24 0;
#X connect 17 0 33 0;
#X connect 18 0 9 0;
#X connect 18 0 17 0;
#X connect 19 0 16 0;
#X connect 20 0 22 0;
#X connect 22 0 23 0;
#X connect 23 0 21 0;
#X connect 24 0 17 1;
#X connect 25 0 15 0;
#X connect 26 0 25 0;
#X connect 26 0 34 1;
#X connect 27 0 9 4;
#X connect 27 0 5 0;
#X connect 27 0 35 0;
#X connect 28 0 5 1;
#X connect 28 0 20 2;
#X connect 29 0 20 3;
#X connect 32 0 33 1;
#X connect 33 0 18 0;
#X connect 34 0 14 0;
#X connect 35 0 20 1;
#X restore 93 -196 pd update_table;
#X text 710 -114 Amplitudes;
#X text 709 -90 Durations;
#X obj 92 -173 lop~ 18000;
#X obj 12 -328 inlet;
#X obj 93 -328 inlet;
#X obj 92 -151 outlet~;
#X obj 93 -302 int;
#X obj 297 -325 inlet;
#X obj 348 -324 inlet;
#X obj 489 -299 clip 0 1;
#X obj 489 -324 inlet;
#X obj 582 -323 inlet;
#X obj 666 -322 inlet;
#X text 10 -350 Run (0 or 1);
#X text 93 -350 Number of breakpoints;
#X text 480 -345 Amp. limit;
#X text 292 -347 Duration boundries;
#X text 570 -344 Random walk parameters;
#X obj 289 -109 s \$0-mind;
#X obj 369 -109 s \$0-maxd;
#X obj 489 -236 s \$0-amplimit;
#X obj 629 -114 table \$0-bpa;
#X obj 629 -91 table \$0-bpd;
#X obj 12 -277 s \$0-start;
#X obj 154 -250 r \$0-mind;
#X obj 215 -250 r \$0-maxd;
#X obj 582 -233 s \$0-amprnd;
#X obj 666 -229 s \$0-drnd;
#X obj 787 -301 r \$0-mind;
#X obj 725 -301 r \$0-maxd;
#X obj 666 -300 clip 0 4;
#X obj 582 -256 *;
#X obj 289 -133 max 2;
#X obj 369 -134 min 300;
#X obj 93 -278 clip 2 20;
#X obj 167 -278 s \$0-np;
#X obj 235 -214 r \$0-np;
#X obj 12 -303 t f b;
#X obj 290 -265 expr max($f1 \, $f2) \; min($f1 \, $f2);
#X msg 321 -288 bang;
#X msg 348 -210 bang;
#X msg 685 -275 bang;
#X obj 289 -170 expr if ($f1 > 0 \, 44100/$f2/$f1 \, 2) \; if ($f1
> 0 \, 44100/$f3/$f1 \, 300);
#X obj 93 -251 t f f;
#X obj 582 -301 clip 0 2;
#X obj 582 -279 / 4;
#X obj 666 -251 expr $f1*($f2-$f3)/4;
#X text 21 41 Gordan Krekovic \, 2013;
#X text 22 -48 This is a straightforward im-plementation of the basic
DSS algorithm. It was named gendyn~ after the original program by Xenakis.
The purpose of the patch is to synthesize audio signal accordingly
to input parameters. Through the inlets it receives the number of breakpoints
in a waveform n \, frequency limits fmin and fmax \, amplitude range
a \, and statistical parameters for the both random walks p1 and p2.
;
#X connect 1 0 4 0;
#X connect 4 0 7 0;
#X connect 5 0 39 0;
#X connect 6 0 8 0;
#X connect 8 0 36 0;
#X connect 9 0 40 0;
#X connect 10 0 40 1;
#X connect 10 0 41 0;
#X connect 11 0 22 0;
#X connect 11 0 33 1;
#X connect 12 0 11 0;
#X connect 13 0 46 0;
#X connect 14 0 32 0;
#X connect 26 0 0 1;
#X connect 27 0 0 2;
#X connect 30 0 43 0;
#X connect 30 0 48 2;
#X connect 31 0 43 0;
#X connect 31 0 48 1;
#X connect 32 0 48 0;
#X connect 33 0 28 0;
#X connect 34 0 20 0;
#X connect 35 0 21 0;
#X connect 36 0 37 0;
#X connect 36 0 45 0;
#X connect 38 0 44 0;
#X connect 39 0 25 0;
#X connect 39 1 8 0;
#X connect 40 0 42 0;
#X connect 40 0 44 1;
#X connect 40 1 42 0;
#X connect 40 1 44 2;
#X connect 41 0 40 0;
#X connect 42 0 44 0;
#X connect 43 0 48 0;
#X connect 44 0 34 0;
#X connect 44 1 35 0;
#X connect 45 0 1 0;
#X connect 45 1 0 0;
#X connect 46 0 47 0;
#X connect 47 0 33 0;
#X connect 48 0 29 0;
