#N canvas 686 365 450 300 10;
#X obj 21 21 inlet;
#X obj 21 158 outlet;
#X obj 21 44 t f b;
#X obj 21 132 expr 2*$f1*($f2+$f3+$f4+$f5+$f6+$f7)/6-$f1;
#X obj 36 85 randomF 1;
#X obj 101 84 randomF 1;
#X obj 168 84 randomF 1;
#X obj 234 84 randomF 1;
#X obj 303 84 randomF 1;
#X obj 370 83 randomF 1;
#X connect 0 0 2 0;
#X connect 2 0 3 0;
#X connect 2 1 4 0;
#X connect 2 1 5 0;
#X connect 2 1 6 0;
#X connect 2 1 7 0;
#X connect 2 1 8 0;
#X connect 2 1 9 0;
#X connect 3 0 1 0;
#X connect 4 0 3 1;
#X connect 5 0 3 2;
#X connect 6 0 3 3;
#X connect 7 0 3 4;
#X connect 8 0 3 5;
#X connect 9 0 3 6;
