#N canvas 500 176 610 411 10;
#X obj 77 14 notein;
#X obj 77 39 pack f f;
#X obj -11 162 route 1;
#X obj 77 87 pack f f f;
#X obj 74 161 route 2;
#X obj 160 161 route 3;
#X obj 246 161 route 4;
#X obj -12 209 throw~ output;
#X obj 73 209 throw~ output;
#X obj 159 210 throw~ output;
#X obj 245 209 throw~ output;
#X obj -9 235 catch~ output;
#X obj 77 62 poly 4 1;
#X obj 145 13 ctlin 6;
#X obj 145 37 / 127;
#X obj 197 32 / 127;
#X obj 197 12 ctlin 13;
#X obj 197 53 * 2;
#X obj 254 32 / 127;
#X obj 254 53 * 2;
#X obj 254 12 ctlin 22;
#X msg 210 82 bang;
#X obj -11 185 gendyn_voice~;
#X obj 160 184 gendyn_voice~;
#X obj 246 184 gendyn_voice~;
#X obj 74 184 gendyn_voice~;
#X obj 321 12 bendin;
#X obj 321 33 - 8192;
#X obj 321 54 / 8192;
#X obj 180 117 pack f f f f;
#X obj 321 76 * 5;
#X obj -10 259 outlet~;
#X connect 0 0 1 0;
#X connect 0 0 21 0;
#X connect 0 1 1 1;
#X connect 1 0 12 0;
#X connect 2 0 22 0;
#X connect 3 0 2 0;
#X connect 3 0 4 0;
#X connect 3 0 5 0;
#X connect 3 0 6 0;
#X connect 4 0 25 0;
#X connect 5 0 23 0;
#X connect 6 0 24 0;
#X connect 11 0 31 0;
#X connect 12 0 3 0;
#X connect 12 1 3 1;
#X connect 12 2 3 2;
#X connect 13 0 14 0;
#X connect 14 0 29 0;
#X connect 15 0 17 0;
#X connect 16 0 15 0;
#X connect 17 0 21 0;
#X connect 17 0 29 1;
#X connect 18 0 19 0;
#X connect 19 0 21 0;
#X connect 19 0 29 2;
#X connect 20 0 18 0;
#X connect 21 0 29 0;
#X connect 22 0 7 0;
#X connect 23 0 9 0;
#X connect 24 0 10 0;
#X connect 25 0 8 0;
#X connect 26 0 27 0;
#X connect 27 0 28 0;
#X connect 28 0 30 0;
#X connect 29 0 22 1;
#X connect 29 0 23 1;
#X connect 29 0 24 1;
#X connect 29 0 25 1;
#X connect 30 0 29 3;
#X connect 30 0 21 0;
